<svg width="23" height="23" viewBox="0 0 23 23" fill="none" xmlns="http://www.w3.org/2000/svg">
<path fill-rule="evenodd" clip-rule="evenodd" d="M20.3663 10.424C20.2533 11.052 19.6963 11.513 19.0363 11.501H17.3663V2.501H19.0543C19.6963 2.452 20.2523 2.948 20.3663 3.577V10.424ZM15.3663 12.288L11.7583 20.406C10.9513 20.148 10.3663 19.391 10.3663 18.501V14.501C10.3663 13.948 9.91829 13.501 9.36629 13.501H3.69729C3.65129 13.498 3.59029 13.499 3.53329 13.49C2.98829 13.407 2.61229 12.896 2.69429 12.352L4.07529 3.351C4.14929 2.861 4.60129 2.522 5.08629 2.501H15.3663V12.288ZM22.3573 3.366C22.1353 1.723 20.7303 0.5 19.0943 0.5C19.0753 0.5 19.0553 0.5 19.0363 0.501H5.09729C3.61029 0.511 2.32029 1.581 2.09829 3.049L0.717287 12.051C0.470287 13.686 1.59829 15.218 3.23029 15.466C3.39029 15.491 3.55329 15.503 3.70629 15.501H8.36629V18.501C8.36629 20.707 10.1603 22.501 12.3663 22.501C12.7623 22.501 13.1193 22.268 13.2803 21.907L17.0153 13.501H19.0183C20.6883 13.506 22.1323 12.298 22.3573 10.635C22.3633 10.591 22.3663 10.546 22.3663 10.501V3.501C22.3663 3.456 22.3633 3.411 22.3573 3.366Z" fill="#313037"/>
</svg>
